<svg xmlns="http://www.w3.org/2000/svg" width="116" height="113" viewBox="0 0 116 113">
  <g id="Group_7" data-name="Group 7" transform="translate(3685 1508)">
    <rect id="Rectangle_76" data-name="Rectangle 76" width="116" height="113" transform="translate(-3685 -1508)" fill="rgba(255,255,255,0)"/>
    <g id="Group_4" data-name="Group 4" transform="translate(9)">
      <g id="Rectangle_69" data-name="Rectangle 69" transform="translate(-3676 -1490)" fill="none" stroke="#fff" stroke-linejoin="round" stroke-width="6">
        <rect width="80" height="80" stroke="none"/>
        <rect x="3" y="3" width="74" height="74" fill="none"/>
      </g>
      <g id="Rectangle_70" data-name="Rectangle 70" transform="translate(-3657 -1505)" fill="none" stroke="#fff" stroke-linejoin="round" stroke-width="6">
        <path d="M8,0H33a8,8,0,0,1,8,8V21a0,0,0,0,1,0,0H0a0,0,0,0,1,0,0V8A8,8,0,0,1,8,0Z" stroke="none"/>
        <path d="M8,3H33a5,5,0,0,1,5,5V18a0,0,0,0,1,0,0H3a0,0,0,0,1,0,0V8A5,5,0,0,1,8,3Z" fill="none"/>
      </g>
      <circle id="Ellipse_1" data-name="Ellipse 1" cx="15.5" cy="15.5" r="15.5" transform="translate(-3637 -1428)" fill="#fff"/>
      <text id="_0" data-name="0" transform="translate(-3627 -1422)" font-size="17" font-family="'\.AppleSystemUIFont'"><tspan x="0" y="16">0</tspan></text>
    </g>
  </g>
</svg>
