<?xml version="1.0" encoding="utf-8"?>
<!-- Generator: Adobe Illustrator 26.5.0, SVG Export Plug-In . SVG Version: 6.00 Build 0)  -->
<svg version="1.1" id="Layer_1" xmlns="http://www.w3.org/2000/svg" xmlns:xlink="http://www.w3.org/1999/xlink" x="0px" y="0px"
	 viewBox="0 0 165 16" style="enable-background:new 0 0 165 16;" xml:space="preserve">
<style type="text/css">
	.st0{fill-rule:evenodd;clip-rule:evenodd;fill:#FFFFFF;}
</style>
<g id="Symbols">
	<g id="header_x2F_desktop" transform="translate(-24.000000, -24.000000)">
		<path id="logo-white" class="st0" d="M110.7,31.8h-7.3v1.8h4.8c-0.3,3.1-2.5,4.1-5.1,4.3c-3.3,0.2-6-2.6-6-5.8
			c-0.1-3.3,2.6-6.1,6-6.1c2.3,0,4.2,1.3,5.1,2.8l1.8-0.9c-0.9-2.2-3.8-3.8-6.9-3.9c-4.6-0.1-8.5,3.7-8.4,8.1
			c0.1,4.4,3.8,7.9,8.4,7.9C109.9,39.9,111.1,34.3,110.7,31.8L110.7,31.8z M150.2,33.4l2-5.3l2,5.3H150.2z M151.4,24.5l-6.3,15h2.5
			l1.7-4.3h5.7l1.7,4.3h2.5l-6.3-15H151.4z M87.7,38.6c-0.7,0-1.2-0.5-1.2-1.2c0-0.6,0.4-0.9,1-1.3c0,0,0,0,0.1-0.1
			c0.2,0.2,1.4,1.7,1.6,1.9C88.6,38.4,88.1,38.6,87.7,38.6L87.7,38.6z M88.1,32.9c0.4,0,0.7,0.3,0.7,0.7c0,0.4-0.2,0.7-0.6,0.9
			c0,0-0.1,0.1-0.2,0.1c-0.1-0.1-0.4-0.4-0.4-0.4c-0.2-0.2-0.2-0.4-0.2-0.6C87.3,33.2,87.6,32.9,88.1,32.9L88.1,32.9z M91.7,36.9
			l0.1-0.1L91,35.9c0,0-0.7,0.9-0.9,1.1c-0.2-0.2-1.2-1.4-1.4-1.6c0.9-0.6,1.3-1.2,1.3-1.9c0-1-0.8-1.7-1.9-1.7
			c-1.1,0-1.9,0.7-1.9,1.7c0,0.5,0.2,0.9,0.5,1.3c0,0,0.1,0.1,0.2,0.2c-1.1,0.7-1.7,1.4-1.7,2.3c0,1.3,1,2.3,2.4,2.3
			c0.8,0,1.6-0.3,2.3-0.9c0.2,0.2,0.7,0.8,0.7,0.8h1.6c0,0-1.2-1.4-1.4-1.6C91.1,37.6,91.4,37.3,91.7,36.9L91.7,36.9z M114.4,33.4
			l2-5.3l2,5.3H114.4z M115.7,24.5l-6.3,15h2.5l1.7-4.3h5.7l1.7,4.3h2.5l-6.3-15H115.7z M128,37.7h-1.4v-5.1h1.5c1.6,0,4,0,4,2.5
			C132,37.3,130.1,37.8,128,37.7L128,37.7z M126.6,26.3h0.4c1.8,0,3.8-0.1,3.8,2.1c0,2.3-1.9,2.3-3.8,2.3h-0.4V26.3z M131.5,31.4
			c1-0.7,1.7-1.6,1.7-2.8c0-3.5-2.3-4-4.8-4.1h-4.2v15h4.9c3.1,0,5.3-1.1,5.5-4.1C134.6,33.7,133.3,31.8,131.5,31.4L131.5,31.4z
			 M172,35.7l-10.5-11.2H160v15h2.2v-11l10.3,11h1.7v-15H172V35.7z M139.3,37.7h-1.4v-5.1h1.5c1.6,0,4,0,4,2.5
			C143.4,37.3,141.5,37.8,139.3,37.7L139.3,37.7z M137.9,26.3h0.4c1.8,0,3.8-0.1,3.8,2.1c0,2.3-1.9,2.3-3.8,2.3h-0.4V26.3z
			 M142.8,31.4c1-0.7,1.7-1.6,1.7-2.8c0-3.5-2.3-4-4.8-4.1h-4.2v15h4.9c3.1,0,5.3-1.1,5.5-4.1C146,33.7,144.6,31.8,142.8,31.4
			L142.8,31.4z M56.7,24.5h-2.3l0,15H61v-1.8h-4.2V24.5z M180,33.4l2-5.3l2,5.3H180z M182.7,24.5h-1.5l-6.3,15h2.5l1.7-4.3h5.7
			l1.7,4.3h2.5L182.7,24.5z M49.7,36.2c-1.2,1.1-2.7,1.7-4.3,1.7c-1.6,0-3.1-0.6-4.3-1.7c-1.2-1.1-1.8-2.5-1.8-4.1
			c0-1.6,0.6-3,1.8-4.2c1.1-1.1,2.6-1.7,4.3-1.7c1.6,0,3.1,0.6,4.3,1.7c1.2,1.1,1.8,2.6,1.8,4.2C51.5,33.6,50.9,35.1,49.7,36.2
			L49.7,36.2z M51.4,26.5c-1.6-1.5-3.7-2.3-5.9-2.3c-2.2,0-4.3,0.8-5.9,2.3c-1.6,1.5-2.5,3.5-2.5,5.6c0,2.1,0.8,4.1,2.5,5.6
			c1.6,1.5,3.7,2.3,5.9,2.3c2.2,0,4.3-0.8,5.9-2.3c1.6-1.5,2.4-3.4,2.4-5.6C53.8,29.9,53,27.9,51.4,26.5L51.4,26.5z M67.7,24
			c-1.2,0-1.9,0.2-2.9,0.7c-3.4,1.5-5.2,4.4-4.9,8c0.3,3.2,1.9,5.3,4.9,6.6c1.1,0.5,1.7,0.7,2.9,0.7c1.2,0.1,1.9,0,3.1-0.4
			c0.9-0.3,1.4-0.5,2.1-1.1v-2.1c0,0-1.2,0.8-2.1,1.2c-1.1,0.4-1.9,0.6-3.1,0.4c-1.2-0.1-1.9-0.4-2.9-1.1c-0.8-0.6-1.3-1-1.7-1.8
			c-0.5-0.8-0.6-1.4-0.7-2.3c-0.2-2.3,0.5-4.1,2.4-5.5c1-0.7,1.7-1,2.9-1.1c1.2-0.1,1.9,0,3.1,0.4c0.9,0.3,1.3,0.6,2.1,1.1v-2
			c-0.7-0.6-0.9-0.7-2.1-1.2C69.8,24.1,68.7,24,67.7,24L67.7,24z M73.5,39.5h7.8v-1.8h-5.4v-5.2h5.3v-1.8h-5.3v-4.4h5.4v-1.8h-7.8
			V39.5z M34,32.4c-0.1,3.1-2.3,5.3-5.3,5.3h-2.3V26.4l2.3,0C31.9,26.5,34.1,29.1,34,32.4L34,32.4z M28.7,24.5H24v15h4.7
			c5,0,7.8-3.5,7.7-7.7C36.3,27.8,33.2,24.5,28.7,24.5L28.7,24.5z"/>
	</g>
</g>
</svg>
